<svg width="142" height="39" viewBox="0 0 142 39" fill="none" xmlns="http://www.w3.org/2000/svg">
<g clip-path="url(#clip0_200_15679)">
<path d="M35.5114 12.7007H26.4338V3.48658C26.4338 2.09846 25.3098 0.967407 23.9177 0.967407H13.9843C12.5979 0.967407 11.4682 2.09275 11.4682 3.48658V8.43923H15.3423V4.84613H22.5541V23.5371H19.3704V27.4158H26.4281V16.5794H34.1477V23.5371H30.2851V27.4158H35.5057C36.8921 27.4158 38.0218 26.2905 38.0218 24.8967V15.2198C38.0218 13.8317 36.8978 12.7007 35.5114 12.7007Z" fill="#247CFF"/>
<path d="M22.5597 35.1104H15.3479V16.5794H18.5887V12.7007H11.4738V23.5314H3.87406V16.5794H7.67396V12.7007H2.51614C1.12399 12.7007 0 13.8317 0 15.2199V24.8967C0 26.2848 1.12399 27.4158 2.51614 27.4158H11.4738V36.4757C11.4738 37.8638 12.5978 38.9949 13.99 38.9949H23.9233C25.3098 38.9949 26.4395 37.8695 26.4395 36.4757V31.266H22.5654V35.1104H22.5597Z" fill="#247CFF"/>
</g>
<path d="M52.2066 11.5501C54.0654 11.5501 55.6961 11.9134 57.0987 12.64C58.5182 13.3667 59.6082 14.4059 60.3686 15.7578C61.1459 17.0928 61.5346 18.6475 61.5346 20.4218C61.5346 22.1962 61.1459 23.7508 60.3686 25.0858C59.6082 26.4039 58.5182 27.4263 57.0987 28.1529C55.6961 28.8795 54.0654 29.2429 52.2066 29.2429H46.0217V11.5501H52.2066ZM52.0799 26.2265C53.9387 26.2265 55.3751 25.7195 56.389 24.7056C57.4029 23.6917 57.9099 22.2638 57.9099 20.4218C57.9099 18.5799 57.4029 17.1435 56.389 16.1127C55.3751 15.065 53.9387 14.5411 52.0799 14.5411H49.5704V26.2265H52.0799Z" fill="#242424"/>
<path d="M70.4265 29.471C69.0747 29.471 67.858 29.1753 66.7764 28.5838C65.6949 27.9755 64.8416 27.1221 64.2163 26.0237C63.608 24.9253 63.3038 23.6579 63.3038 22.2215C63.3038 20.7851 63.6164 19.5177 64.2417 18.4193C64.8838 17.3209 65.7541 16.476 66.8525 15.8846C67.9509 15.2762 69.176 14.972 70.5279 14.972C71.8798 14.972 73.105 15.2762 74.2034 15.8846C75.3018 16.476 76.1636 17.3209 76.7888 18.4193C77.431 19.5177 77.7521 20.7851 77.7521 22.2215C77.7521 23.6579 77.4225 24.9253 76.7635 26.0237C76.1213 27.1221 75.2426 27.9755 74.1273 28.5838C73.0289 29.1753 71.7953 29.471 70.4265 29.471ZM70.4265 26.3786C71.0687 26.3786 71.6686 26.2265 72.2262 25.9223C72.8008 25.6012 73.257 25.1281 73.595 24.5028C73.933 23.8776 74.102 23.1171 74.102 22.2215C74.102 20.8865 73.7471 19.8642 73.0374 19.1544C72.3445 18.4278 71.4911 18.0645 70.4772 18.0645C69.4633 18.0645 68.6099 18.4278 67.9171 19.1544C67.2412 19.8642 66.9032 20.8865 66.9032 22.2215C66.9032 23.5565 67.2327 24.5873 67.8918 25.314C68.5677 26.0237 69.4126 26.3786 70.4265 26.3786Z" fill="#242424"/>
<path d="M79.4426 22.2215C79.4426 20.7682 79.7384 19.5009 80.3298 18.4193C80.9213 17.3209 81.7408 16.476 82.7886 15.8846C83.8363 15.2762 85.0361 14.972 86.3879 14.972C88.1285 14.972 89.5649 15.4114 90.6971 16.2901C91.8462 17.152 92.6151 18.3686 93.0037 19.9402H89.1762C88.9734 19.3319 88.627 18.8587 88.1369 18.5207C87.6638 18.1659 87.0723 17.9884 86.3626 17.9884C85.3487 17.9884 84.546 18.3602 83.9546 19.1037C83.3631 19.8304 83.0674 20.8696 83.0674 22.2215C83.0674 23.5565 83.3631 24.5958 83.9546 25.3393C84.546 26.0659 85.3487 26.4293 86.3626 26.4293C87.799 26.4293 88.7368 25.7871 89.1762 24.5028H93.0037C92.6151 26.0237 91.8462 27.2319 90.6971 28.1276C89.548 29.0232 88.1116 29.471 86.3879 29.471C85.0361 29.471 83.8363 29.1753 82.7886 28.5838C81.7408 27.9755 80.9213 27.1305 80.3298 26.049C79.7384 24.9506 79.4426 23.6748 79.4426 22.2215Z" fill="#242424"/>
<path d="M94.6909 22.1708C94.6909 20.7513 94.9698 19.4924 95.5274 18.394C96.102 17.2956 96.8793 16.4507 97.8594 15.8592C98.8395 15.2678 99.9295 14.972 101.129 14.972C102.042 14.972 102.912 15.1748 103.74 15.5804C104.568 15.9691 105.227 16.4929 105.717 17.152V10.4855H109.317V29.2429H105.717V27.1643C105.278 27.8572 104.661 28.4148 103.867 28.8373C103.073 29.2598 102.152 29.471 101.104 29.471C99.921 29.471 98.8395 29.1668 97.8594 28.5585C96.8793 27.9501 96.102 27.0967 95.5274 25.9983C94.9698 24.883 94.6909 23.6072 94.6909 22.1708ZM105.743 22.2215C105.743 21.3597 105.574 20.6246 105.236 20.0163C104.898 19.391 104.441 18.9179 103.867 18.5968C103.292 18.2588 102.676 18.0898 102.016 18.0898C101.357 18.0898 100.749 18.2504 100.191 18.5714C99.6338 18.8925 99.1775 19.3657 98.8226 19.9909C98.4847 20.5993 98.3157 21.3259 98.3157 22.1708C98.3157 23.0157 98.4847 23.7593 98.8226 24.4014C99.1775 25.0267 99.6338 25.5083 100.191 25.8463C100.766 26.1842 101.374 26.3532 102.016 26.3532C102.676 26.3532 103.292 26.1927 103.867 25.8716C104.441 25.5336 104.898 25.0605 105.236 24.4521C105.574 23.8269 105.743 23.0833 105.743 22.2215Z" fill="#242424"/>
<path d="M119.018 29.471C117.666 29.471 116.45 29.1753 115.368 28.5838C114.287 27.9755 113.433 27.1221 112.808 26.0237C112.2 24.9253 111.895 23.6579 111.895 22.2215C111.895 20.7851 112.208 19.5177 112.833 18.4193C113.475 17.3209 114.346 16.476 115.444 15.8846C116.542 15.2762 117.768 14.972 119.12 14.972C120.471 14.972 121.697 15.2762 122.795 15.8846C123.893 16.476 124.755 17.3209 125.38 18.4193C126.023 19.5177 126.344 20.7851 126.344 22.2215C126.344 23.6579 126.014 24.9253 125.355 26.0237C124.713 27.1221 123.834 27.9755 122.719 28.5838C121.62 29.1753 120.387 29.471 119.018 29.471ZM119.018 26.3786C119.66 26.3786 120.26 26.2265 120.818 25.9223C121.392 25.6012 121.849 25.1281 122.187 24.5028C122.525 23.8776 122.694 23.1171 122.694 22.2215C122.694 20.8865 122.339 19.8642 121.629 19.1544C120.936 18.4278 120.083 18.0645 119.069 18.0645C118.055 18.0645 117.202 18.4278 116.509 19.1544C115.833 19.8642 115.495 20.8865 115.495 22.2215C115.495 23.5565 115.824 24.5873 116.483 25.314C117.159 26.0237 118.004 26.3786 119.018 26.3786Z" fill="#242424"/>
<path d="M128.034 22.2215C128.034 20.7682 128.33 19.5009 128.921 18.4193C129.513 17.3209 130.332 16.476 131.38 15.8846C132.428 15.2762 133.628 14.972 134.98 14.972C136.72 14.972 138.156 15.4114 139.289 16.2901C140.438 17.152 141.207 18.3686 141.595 19.9402H137.768C137.565 19.3319 137.219 18.8587 136.729 18.5207C136.255 18.1659 135.664 17.9884 134.954 17.9884C133.94 17.9884 133.138 18.3602 132.546 19.1037C131.955 19.8304 131.659 20.8696 131.659 22.2215C131.659 23.5565 131.955 24.5958 132.546 25.3393C133.138 26.0659 133.94 26.4293 134.954 26.4293C136.391 26.4293 137.328 25.7871 137.768 24.5028H141.595C141.207 26.0237 140.438 27.2319 139.289 28.1276C138.14 29.0232 136.703 29.471 134.98 29.471C133.628 29.471 132.428 29.1753 131.38 28.5838C130.332 27.9755 129.513 27.1305 128.921 26.049C128.33 24.9506 128.034 23.6748 128.034 22.2215Z" fill="#242424"/>
<defs>
<clipPath id="clip0_200_15679">
<rect width="38.0217" height="38.0217" fill="white" transform="translate(0 0.967407)"/>
</clipPath>
</defs>
</svg>
